<svg width="55" height="47" viewBox="0 0 55 47" fill="none" xmlns="http://www.w3.org/2000/svg">
<path d="M38.9583 11.1838C38.9583 16.2725 31.9783 25.3407 28.9132 28.9941C28.1779 29.9726 26.822 29.9726 26.0868 28.9941C23.0217 25.3407 16.0417 16.2725 16.0417 11.1838C16.0417 5.00756 21.1693 0 27.5 0C33.8307 0 38.9583 5.00756 38.9583 11.1838ZM27.5 14.1662C29.6102 14.1662 31.3194 12.4979 31.3194 10.4382C31.3194 8.37948 29.6102 6.71029 27.5 6.71029C25.3898 6.71029 23.6806 8.37948 23.6806 10.4382C23.6806 12.4979 25.3898 14.1662 27.5 14.1662ZM40.6389 16.7571C40.6866 16.6453 40.7344 16.5334 40.7821 16.4123L51.8585 12.0878C53.3672 11.5007 55 12.5818 55 14.1662V39.4043C55 40.3177 54.4271 41.1378 53.5582 41.4827L39.7222 46.8788V18.677C40.0564 18.0339 40.362 17.4002 40.6389 16.7571ZM14.3611 16.7571C14.638 17.4002 14.9436 18.0339 15.2778 18.677V42.1071L3.14245 46.8509C1.63759 47.3542 0 46.3569 0 44.7726V19.5344C0 18.6211 0.57053 17.717 1.44089 17.4561L13.1389 12.8894C13.3681 14.2128 13.8359 15.5269 14.3611 16.7571ZM31.3003 30.858C32.6276 29.3202 34.7092 26.6827 36.6667 23.7656V47L18.3333 41.8834V23.7656C20.2908 26.6827 22.3724 29.3202 23.6997 30.858C25.6571 33.3278 29.3429 33.3278 31.3003 30.858Z" fill="white"/>
</svg>
