<svg width="50" height="42" viewBox="0 0 50 42" fill="none" xmlns="http://www.w3.org/2000/svg">
<path d="M46.875 3.92919L34.3641 3.92923V1.31281C34.3641 0.587481 33.6648 0 32.8016 0C31.9383 0 31.2391 0.587481 31.2391 1.31281V3.92858H18.7391V1.31281C18.7391 0.587481 18.0398 0 17.1766 0C16.3133 0 15.6141 0.587481 15.6141 1.31281V3.92858H3.125C1.39922 3.92858 0 5.1042 0 6.55419V39.3744C0 40.8243 1.39922 42 3.125 42H46.875C48.6008 42 50 40.8243 50 39.3744V6.55419C50 5.10481 48.6008 3.92919 46.875 3.92919V3.92919ZM46.875 39.3744H3.125V6.55419H15.6141V7.87685C15.6141 8.60213 16.3133 9.18965 17.1766 9.18965C18.0398 9.18965 18.7391 8.60213 18.7391 7.87685V6.55485H31.2391V7.8775C31.2391 8.60283 31.9383 9.19031 32.8016 9.19031C33.6648 9.19031 34.3641 8.60283 34.3641 7.8775V6.55485H46.875V39.3744ZM35.9375 20.9957H39.0625C39.925 20.9957 40.625 20.4076 40.625 19.6829V17.0573C40.625 16.3326 39.925 15.7445 39.0625 15.7445H35.9375C35.075 15.7445 34.375 16.3326 34.375 17.0573V19.6829C34.375 20.4076 35.075 20.9957 35.9375 20.9957ZM35.9375 31.4975H39.0625C39.925 31.4975 40.625 30.91 40.625 30.1847V27.5591C40.625 26.8344 39.925 26.2463 39.0625 26.2463H35.9375C35.075 26.2463 34.375 26.8344 34.375 27.5591V30.1847C34.375 30.9107 35.075 31.4975 35.9375 31.4975ZM26.5625 26.2463H23.4375C22.575 26.2463 21.875 26.8344 21.875 27.5591V30.1847C21.875 30.91 22.575 31.4975 23.4375 31.4975H26.5625C27.425 31.4975 28.125 30.91 28.125 30.1847V27.5591C28.125 26.8351 27.425 26.2463 26.5625 26.2463ZM26.5625 15.7445H23.4375C22.575 15.7445 21.875 16.3326 21.875 17.0573V19.6829C21.875 20.4076 22.575 20.9957 23.4375 20.9957H26.5625C27.425 20.9957 28.125 20.4076 28.125 19.6829V17.0573C28.125 16.3319 27.425 15.7445 26.5625 15.7445ZM14.0625 15.7445H10.9375C10.075 15.7445 9.375 16.3326 9.375 17.0573V19.6829C9.375 20.4076 10.075 20.9957 10.9375 20.9957H14.0625C14.925 20.9957 15.625 20.4076 15.625 19.6829V17.0573C15.625 16.3319 14.925 15.7445 14.0625 15.7445ZM14.0625 26.2463H10.9375C10.075 26.2463 9.375 26.8344 9.375 27.5591V30.1847C9.375 30.91 10.075 31.4975 10.9375 31.4975H14.0625C14.925 31.4975 15.625 30.91 15.625 30.1847V27.5591C15.625 26.8351 14.925 26.2463 14.0625 26.2463Z" fill="white" fill-opacity="0.5"/>
</svg>
