<svg width="48" height="48" viewBox="0 0 48 48" fill="none" xmlns="http://www.w3.org/2000/svg">
<path fill-rule="evenodd" clip-rule="evenodd" d="M24 45.5998C35.9292 45.5998 45.6 35.9291 45.6 23.9999C45.6 12.0708 35.9292 2.39999 24 2.39999C12.0708 2.39999 2.4 12.0708 2.4 23.9999C2.4 35.9291 12.0708 45.5998 24 45.5998ZM24 47.9998C37.2552 47.9998 48 37.255 48 23.9999C48 10.7448 37.2552 0 24 0C10.7448 0 0 10.7448 0 23.9999C0 37.255 10.7448 47.9998 24 47.9998Z" fill="white" />
<path d="M9.59998 37.9558C9.59998 36.7162 10.5264 35.6686 11.76 35.5318C21.018 34.507 27.024 34.5994 36.2616 35.5546C36.7229 35.603 37.1601 35.7847 37.5198 36.0776C37.8795 36.3704 38.1461 36.7616 38.2871 37.2035C38.4282 37.6454 38.4374 38.1188 38.3138 38.5658C38.1902 39.0129 37.9391 39.4143 37.5912 39.721C26.6892 49.2237 20.4588 49.0929 10.368 39.7306C9.87598 39.2746 9.59998 38.6266 9.59998 37.957V37.9558Z" fill="white" />
<path fill-rule="evenodd" clip-rule="evenodd" d="M36.138 36.7475C26.9736 35.7995 21.054 35.7107 11.8908 36.7247C11.5892 36.7599 11.3111 36.905 11.1099 37.1324C10.9086 37.3598 10.7983 37.6535 10.8 37.9571C10.8 38.3003 10.9428 38.6255 11.184 38.8511C16.1856 43.4903 19.9752 45.5867 23.6796 45.5999C27.3972 45.6131 31.3908 43.5335 36.8028 38.8175C36.9748 38.6645 37.0985 38.4648 37.1591 38.2427C37.2197 38.0207 37.2144 37.7858 37.144 37.5667C37.0736 37.3475 36.941 37.1536 36.7624 37.0084C36.5839 36.8631 36.3669 36.7729 36.138 36.7487V36.7475ZM11.628 34.3391C20.9832 33.3035 27.0768 33.3971 36.3864 34.3607C37.0804 34.4332 37.7382 34.7064 38.2793 35.1469C38.8203 35.5874 39.2212 36.1761 39.4329 36.841C39.6445 37.5058 39.6577 38.218 39.4709 38.8902C39.284 39.5625 38.9052 40.1656 38.3808 40.6259C32.8908 45.4115 28.3188 48.0179 23.6724 47.9999C19.0128 47.9831 14.6424 45.3323 9.55323 40.6103C9.18885 40.2709 8.89838 39.86 8.69996 39.4033C8.50154 38.9466 8.39944 38.4539 8.40003 37.9559C8.39828 37.0612 8.72668 36.1974 9.32231 35.5298C9.91794 34.8622 10.7389 34.4378 11.628 34.3379V34.3391Z" fill="white" />
<path d="M33.6 19.1998C33.6 21.7459 32.5886 24.1877 30.7883 25.988C28.9879 27.7884 26.5461 28.7998 24 28.7998C21.4539 28.7998 19.0121 27.7884 17.2118 25.988C15.4114 24.1877 14.4 21.7459 14.4 19.1998C14.4 16.6537 15.4114 14.212 17.2118 12.4116C19.0121 10.6113 21.4539 9.59985 24 9.59985C26.5461 9.59985 28.9879 10.6113 30.7883 12.4116C32.5886 14.212 33.6 16.6537 33.6 19.1998V19.1998Z" fill="white" />
<path fill-rule="evenodd" clip-rule="evenodd" d="M24 26.3998C25.9096 26.3998 27.7409 25.6412 29.0912 24.291C30.4415 22.9407 31.2 21.1094 31.2 19.1998C31.2 17.2903 30.4415 15.4589 29.0912 14.1087C27.7409 12.7584 25.9096 11.9998 24 11.9998C22.0905 11.9998 20.2591 12.7584 18.9089 14.1087C17.5586 15.4589 16.8 17.2903 16.8 19.1998C16.8 21.1094 17.5586 22.9407 18.9089 24.291C20.2591 25.6412 22.0905 26.3998 24 26.3998V26.3998ZM24 28.7998C26.5461 28.7998 28.9879 27.7884 30.7883 25.988C32.5886 24.1877 33.6 21.7459 33.6 19.1998C33.6 16.6537 32.5886 14.212 30.7883 12.4116C28.9879 10.6113 26.5461 9.59985 24 9.59985C21.4539 9.59985 19.0121 10.6113 17.2118 12.4116C15.4114 14.212 14.4 16.6537 14.4 19.1998C14.4 21.7459 15.4114 24.1877 17.2118 25.988C19.0121 27.7884 21.4539 28.7998 24 28.7998V28.7998Z" fill="white" />
</svg>
