<svg width="24" height="24" viewBox="0 0 24 24" fill="none" xmlns="http://www.w3.org/2000/svg">
<path d="M4.41999 20.5789C4.28125 20.5787 4.14408 20.5496 4.0172 20.4934C3.89031 20.4373 3.7765 20.3554 3.68299 20.2529C3.58779 20.1513 3.51514 20.0307 3.46982 19.899C3.42449 19.7674 3.40751 19.6276 3.41999 19.4889L3.66499 16.7949L14.983 5.48091L18.52 9.01691L7.20499 20.3299L4.51099 20.5749C4.48074 20.5777 4.45037 20.579 4.41999 20.5789ZM19.226 8.30991L15.69 4.77391L17.811 2.65291C17.9039 2.55993 18.0142 2.48617 18.1355 2.43585C18.2569 2.38552 18.3871 2.35962 18.5185 2.35962C18.6499 2.35962 18.78 2.38552 18.9014 2.43585C19.0228 2.48617 19.1331 2.55993 19.226 2.65291L21.347 4.77391C21.44 4.86678 21.5137 4.97707 21.5641 5.09847C21.6144 5.21986 21.6403 5.34999 21.6403 5.48141C21.6403 5.61282 21.6144 5.74295 21.5641 5.86435C21.5137 5.98574 21.44 6.09603 21.347 6.18891L19.227 8.30891L19.226 8.30991Z" fill="#00AA44"/>
</svg>
