<svg width="30" height="30" viewBox="0 0 30 30" fill="none" xmlns="http://www.w3.org/2000/svg">
<path d="M24.7965 21.4454H22.8407C22.7071 21.4454 22.5819 21.5069 22.4985 21.6153C22.3037 21.8643 22.0951 22.1045 21.8753 22.333C20.9763 23.2806 19.9116 24.0357 18.7398 24.5567C17.5258 25.0966 16.221 25.3736 14.9032 25.3711C13.5706 25.3711 12.2796 25.0957 11.0666 24.5567C9.89487 24.0357 8.83008 23.2806 7.93115 22.333C7.03061 21.3887 6.31254 20.2694 5.81671 19.0371C5.30202 17.7598 5.04328 16.4034 5.04328 15C5.04328 13.5967 5.3048 12.2403 5.81671 10.9629C6.31194 9.72954 7.02417 8.61918 7.93115 7.66704C8.83813 6.71489 9.89256 5.96489 11.0666 5.4434C12.2796 4.90434 13.5706 4.62895 14.9032 4.62895C16.2359 4.62895 17.5268 4.90141 18.7398 5.4434C19.9139 5.96489 20.9683 6.71489 21.8753 7.66704C22.0951 7.89848 22.3009 8.13871 22.4985 8.38481C22.5819 8.49321 22.7099 8.55473 22.8407 8.55473H24.7965C24.9718 8.55473 25.0803 8.34965 24.9829 8.19438C22.849 4.70219 19.1154 2.39067 14.8726 2.40239C8.20658 2.41997 2.86207 8.11821 2.92884 15.1289C2.99561 22.0284 8.33178 27.5977 14.9032 27.5977C19.1349 27.5977 22.8518 25.2891 24.9829 21.8057C25.0775 21.6504 24.9718 21.4454 24.7965 21.4454ZM27.2699 14.8155L23.322 11.5342C23.1745 11.4112 22.9603 11.5225 22.9603 11.7188V13.9454H14.2244C14.102 13.9454 14.0018 14.0508 14.0018 14.1797V15.8204C14.0018 15.9493 14.102 16.0547 14.2244 16.0547H22.9603V18.2813C22.9603 18.4776 23.1773 18.5889 23.322 18.4659L27.2699 15.1846C27.2965 15.1627 27.318 15.1347 27.3328 15.1027C27.3476 15.0707 27.3553 15.0356 27.3553 15C27.3553 14.9645 27.3476 14.9294 27.3328 14.8974C27.318 14.8654 27.2965 14.8374 27.2699 14.8155Z" fill="white"/>
</svg>
